<?xml version="1.0" encoding="utf-8"?>
<!-- Generator: Adobe Illustrator 18.0.0, SVG Export Plug-In . SVG Version: 6.00 Build 0)  -->
<!DOCTYPE svg PUBLIC "-//W3C//DTD SVG 1.1//EN" "http://www.w3.org/Graphics/SVG/1.1/DTD/svg11.dtd">
<svg version="1.1" id="Layer_1" xmlns="http://www.w3.org/2000/svg" xmlns:xlink="http://www.w3.org/1999/xlink" x="0px" y="0px"
	 viewBox="0 0 400 500" enable-background="new 0 0 400 500" xml:space="preserve">
<g>
	<line fill="none" stroke="#BEB9B5" stroke-width="35" stroke-miterlimit="10" x1="308.8" y1="335.6" x2="204.7" y2="439.7"/>
	<line fill="none" stroke="#BEB9B5" stroke-width="35" stroke-miterlimit="10" x1="132.7" y1="344.6" x2="228.8" y2="440.7"/>
	<line fill="none" stroke="#BEB9B5" stroke-width="35" stroke-miterlimit="10" x1="204.7" y1="46.6" x2="300.7" y2="142.6"/>
	<line fill="none" stroke="#C25B56" stroke-width="35" stroke-miterlimit="10" x1="217.1" y1="47" x2="324.3" y2="154.1"/>
	<polyline fill="#808080" points="214.6,453 229.1,450.9 103.8,325.1 104.1,343 	"/>
	<line fill="none" stroke="#808080" stroke-width="35" stroke-miterlimit="10" x1="101.7" y1="150.7" x2="309.8" y2="358.8"/>
	<polyline fill="#BEB9B5" points="272.9,346.5 284.9,345.6 229.1,401.3 223.6,395.9 	"/>
	<line fill="none" stroke="#C25B56" stroke-width="35" stroke-miterlimit="10" x1="116.1" y1="313" x2="239.3" y2="436.1"/>
	<polygon fill="#BEB9B5" points="89,163 102,163 229.3,34 217,34 	"/>
	<polyline fill="#808080" points="287.9,155 311.4,166 205.8,59.7 204.3,75 	"/>
	<line fill="none" stroke="#BEB9B5" stroke-width="35" stroke-miterlimit="10" x1="229.3" y1="47.6" x2="126.4" y2="151.4"/>
	<line fill="none" stroke="#C25B56" stroke-width="35" stroke-miterlimit="10" x1="241.8" y1="46.6" x2="137.6" y2="150.7"/>
	<line fill="none" stroke="#C25B56" stroke-width="35" stroke-miterlimit="10" x1="113.7" y1="149.7" x2="321.8" y2="357.8"/>
	<line fill="none" stroke="#C25B56" stroke-width="35" stroke-miterlimit="10" x1="320.8" y1="334.6" x2="216.6" y2="438.7"/>
</g>
</svg>
