<?xml version="1.0" encoding="utf-8"?>
<!-- Generator: Adobe Illustrator 18.0.0, SVG Export Plug-In . SVG Version: 6.00 Build 0)  -->
<!DOCTYPE svg PUBLIC "-//W3C//DTD SVG 1.1//EN" "http://www.w3.org/Graphics/SVG/1.1/DTD/svg11.dtd">
<svg version="1.1" id="Layer_1" xmlns="http://www.w3.org/2000/svg" xmlns:xlink="http://www.w3.org/1999/xlink" x="0px" y="0px"
	 viewBox="0 0 400 500" enable-background="new 0 0 400 500" xml:space="preserve">
<g>
	<line fill="none" stroke="#BEB9B5" stroke-width="35" stroke-miterlimit="10" x1="727.8" y1="316.6" x2="623.7" y2="420.7"/>
	<line fill="none" stroke="#BEB9B5" stroke-width="35" stroke-miterlimit="10" x1="623.7" y1="27.6" x2="719.7" y2="123.6"/>
	<line fill="none" stroke="#C25B56" stroke-width="35" stroke-miterlimit="10" x1="636.1" y1="28" x2="743.3" y2="135.1"/>
	<polyline fill="#BEB9B5" points="691.9,327.5 703.9,326.6 648.1,382.3 642.6,376.9 	"/>
	<polyline fill="#808080" points="706.9,136 730.4,147 624.8,40.7 623.3,56 	"/>
	<g>
		<line fill="none" stroke="#BEB9B5" stroke-width="35" stroke-miterlimit="10" x1="551.7" y1="325.6" x2="647.8" y2="421.7"/>
		<polyline fill="#808080" points="633.6,434 648.1,431.9 522.8,306.1 523.1,324 		"/>
		<line fill="none" stroke="#808080" stroke-width="35" stroke-miterlimit="10" x1="520.7" y1="131.7" x2="728.8" y2="339.8"/>
		<line fill="none" stroke="#C25B56" stroke-width="35" stroke-miterlimit="10" x1="535.1" y1="294" x2="658.3" y2="417.1"/>
		<polygon fill="#BEB9B5" points="508,144 521,144 648.3,15 636,15 		"/>
		<line fill="none" stroke="#BEB9B5" stroke-width="35" stroke-miterlimit="10" x1="648.3" y1="28.6" x2="545.4" y2="132.4"/>
		<line fill="none" stroke="#C25B56" stroke-width="35" stroke-miterlimit="10" x1="660.8" y1="27.6" x2="556.6" y2="131.7"/>
		<line fill="none" stroke="#C25B56" stroke-width="35" stroke-miterlimit="10" x1="532.7" y1="130.7" x2="740.8" y2="338.8"/>
	</g>
	<line fill="none" stroke="#C25B56" stroke-width="35" stroke-miterlimit="10" x1="739.8" y1="315.6" x2="635.6" y2="419.7"/>
</g>
<path fill="none" stroke="#535353" stroke-miterlimit="10" d="M201.1,407.4l-14.1-14 M201.1,407.4l-2.3,1.9 M198.8,409.3L187,393.4
	 M286.1,374.4l0.3-0.2l0,0 M188.1,437.8l2.1,2.1 M185.2,440.2l1.8,2.4l3.2-2.8 M188.1,437.8l-2.9,2.4 M299,176.2l-2.4-3.4
	 M296.6,172.8l10.7-11.1 M299,176.2l11.3-10.4l-3-4.1 M204.2,404.8l-3,2.6 M201.1,407.4L201.1,407.4 M204.2,404.8l-3.1,2.6
	 M185.2,440.2l-14.7-20.1 M177.5,433.1l-5.9-6 M171.5,427.2l19.1,27.4l1.6-1.3 M286.4,374.2l-0.3,0.2 M188.1,437.8l-17.6-17.7
	 M198.8,409.3l0.1,0.1l2.3-2 M307.3,161.7l10.7-11.1l-71.6-71.5 M246.4,79.1l60.9,82.6 M225.3,58L107.4,163.3l9.9,13.5 M225.3,58
	l-16-16L82,171l89.5,89.4 M172.6,259.8l3.9,5.6 M176.5,265.4l-5.1-5 M117.4,176.8l-1.8,1.5l57.1,81.5 M135.1,371.8l-39.5-53.9
	 M171.5,427.2l-29.5-42.4 M102.5,330.9L88.7,344l82.8,83.2 M197.1,452.9l19,19l105.4-105.3L215.8,261.7 M286.4,374.2l7.8-6.9
	l-78.4-105.6 M286.1,374.4l-89,78.4 M179.9,220.1l24.4,24.3 M157.9,180.2l47.3,63.8 M157.9,180.2l-3.8,3.3l25.8,36.7 M204.4,244.3
	l4.4,4.4 M208.8,248.7l-3.6-4.8 M246.2,367.9l-42,36.9 M204.2,404.8L247,369l-0.8-1.1 M175.5,382.1l-49.2-69.7l-11.7,9.4
	 M175.5,382.1l11.4,11.3 M187,393.4l-65.4-87.9l-23.3,19.6l4.2,5.8 M107.6,308.7l-1.2-1.2l-10.9,10.4 M213.3,95.2l-48.9,41.6
	 M213.3,95.2l-3.9-3.8l-44.9,45.4 M246.4,79.1L228.7,55l-3.4,3 M225.3,58l21.1,21.1 M221.4,103l-72.7,64.8l9.2,12.4 M236.4,117.3
	l52.5,68.2l10.2-9.3 M236.4,117.3l-15-14.4 M299,176.2l6.4,9.1l-20.6,18l-59-80.7l-67.9,57.6 M246.2,367.9l5.8-5.1l-45-61.1
	 M246.2,367.9l-62.7-89.5 M236.4,117.3l59.1,56.7l1.1-1.2 M296.6,172.8l-65.1-93.1l-18.2,15.5 M221.4,103l-8.1-7.8 M236.4,117.3
	l-12.7-16.5l-2.3,2.1 M205.9,260l80.5,114.2 M286.1,374.4l-91.1,76.4 M164.4,136.7l-47.1,40 M114.6,321.7l60.9,60.4 M175.5,382.1
	l20.7,29.4l2.5-2.1 M142.1,384.8l35.4,48.3 M107.6,308.7L97,317.2l38,54.6 M198.9,247l-19-26.9 M201.2,407.5l14.9,14.8l55.8-55.6
	l-65-64.9 M117.4,176.8l59.6,80.9 M164.4,136.7L130.5,171l49.4,49.1 M205.2,243.9l-0.9,0.4 M1.2,358.3l273.3-141.1 M412.5,150.4
	L180.2,270.3 M172.6,259.8l-1.1,0.6 M177,257.7l-4.4,2.1 M204.4,244.3l-5.5,2.7"/>
</svg>
